<svg width="24" height="24" viewBox="0 0 24 24" fill="none" xmlns="http://www.w3.org/2000/svg">
<path d="M9.00003 8H15C15.2653 8 15.5196 7.89464 15.7071 7.70711C15.8947 7.51957 16 7.26522 16 7C16 6.73478 15.8947 6.48043 15.7071 6.29289C15.5196 6.10536 15.2653 6 15 6H9.00003C8.73482 6 8.48046 6.10536 8.29293 6.29289C8.10539 6.48043 8.00003 6.73478 8.00003 7C8.00003 7.26522 8.10539 7.51957 8.29293 7.70711C8.48046 7.89464 8.73482 8 9.00003 8ZM9.47003 4.5C9.48477 4.62195 9.54389 4.73422 9.63611 4.81537C9.72833 4.89652 9.8472 4.94089 9.97003 4.94H14C14.1223 4.93876 14.24 4.89365 14.3318 4.81289C14.4236 4.73213 14.4833 4.62109 14.5 4.5C14.7199 3.43704 15.1262 2.42138 15.7 1.5C15.753 1.41062 15.7749 1.3062 15.7622 1.20306C15.7496 1.09993 15.7031 1.00391 15.63 0.929999C15.5697 0.850554 15.487 0.790963 15.3926 0.758887C15.2981 0.72681 15.1963 0.723715 15.1 0.749999L13.24 1.55C13.2088 1.56506 13.1747 1.57288 13.14 1.57288C13.1054 1.57288 13.0712 1.56506 13.04 1.55C12.978 1.52691 12.9276 1.48016 12.9 1.42L12.46 0.309999C12.4216 0.219805 12.3575 0.142896 12.2757 0.0888377C12.1939 0.0347798 12.0981 0.00595856 12 0.00595856C11.902 0.00595856 11.8061 0.0347798 11.7243 0.0888377C11.6425 0.142896 11.5785 0.219805 11.54 0.309999L11.1 1.42C11.0724 1.48016 11.0221 1.52691 10.96 1.55C10.9288 1.56506 10.8947 1.57288 10.86 1.57288C10.8254 1.57288 10.7912 1.56506 10.76 1.55L8.90003 0.749999C8.80466 0.711421 8.6997 0.703203 8.59948 0.726469C8.49926 0.749734 8.40866 0.803348 8.34003 0.879999C8.267 0.953908 8.22052 1.04993 8.20785 1.15306C8.19519 1.2562 8.21706 1.36062 8.27003 1.45C8.84937 2.38664 9.25582 3.4197 9.47003 4.5ZM15.44 9.12C15.3369 9.04076 15.2101 8.9985 15.08 9H8.92003C8.78997 8.9985 8.66318 9.04076 8.56003 9.12C6.01003 11.12 3.16003 14.52 3.16003 17.52C3.16003 21.75 5.52003 24 12 24C18.48 24 20.84 21.75 20.84 17.52C20.84 14.52 18 11.07 15.44 9.12ZM13 20.13C12.9417 20.1414 12.8891 20.1724 12.8509 20.2179C12.8127 20.2634 12.7912 20.3206 12.79 20.38V20.75C12.79 20.9489 12.711 21.1397 12.5704 21.2803C12.4297 21.421 12.2389 21.5 12.04 21.5C11.8411 21.5 11.6504 21.421 11.5097 21.2803C11.3691 21.1397 11.29 20.9489 11.29 20.75V20.43C11.29 20.3637 11.2637 20.3001 11.2168 20.2532C11.1699 20.2063 11.1063 20.18 11.04 20.18H10.45C10.2511 20.18 10.0604 20.101 9.9197 19.9603C9.77905 19.8197 9.70003 19.6289 9.70003 19.43C9.70003 19.2311 9.77905 19.0403 9.9197 18.8997C10.0604 18.759 10.2511 18.68 10.45 18.68H12.6C12.7596 18.6855 12.916 18.6338 13.0408 18.5342C13.1657 18.4347 13.2509 18.2938 13.281 18.1369C13.3112 17.9801 13.2844 17.8176 13.2053 17.6789C13.1263 17.5401 13.0003 17.4341 12.85 17.38L10.67 16.51C10.2307 16.3454 9.85682 16.0423 9.60504 15.6463C9.35326 15.2504 9.23724 14.7833 9.27452 14.3156C9.3118 13.8479 9.50036 13.4051 9.81167 13.054C10.123 12.703 10.5401 12.4629 11 12.37C11.0583 12.3586 11.111 12.3276 11.1492 12.2821C11.1874 12.2366 11.2089 12.1794 11.21 12.12V11.75C11.21 11.5511 11.2891 11.3603 11.4297 11.2197C11.5704 11.079 11.7611 11 11.96 11C12.1589 11 12.3497 11.079 12.4904 11.2197C12.631 11.3603 12.71 11.5511 12.71 11.75V12.07C12.71 12.1363 12.7364 12.1999 12.7833 12.2468C12.8301 12.2937 12.8937 12.32 12.96 12.32H13.55C13.7489 12.32 13.9397 12.399 14.0804 12.5397C14.221 12.6803 14.3 12.8711 14.3 13.07C14.3 13.2689 14.221 13.4597 14.0804 13.6003C13.9397 13.741 13.7489 13.82 13.55 13.82H11.44C11.2804 13.8145 11.1241 13.8662 10.9992 13.9658C10.8744 14.0653 10.7892 14.2062 10.759 14.3631C10.7289 14.5199 10.7557 14.6824 10.8347 14.8211C10.9138 14.9599 11.0398 15.0659 11.19 15.12L13.37 15.99C13.8093 16.1579 14.1817 16.4646 14.4308 16.8634C14.6799 17.2623 14.792 17.7315 14.7502 18.1999C14.7083 18.6683 14.5148 19.1102 14.1989 19.4585C13.883 19.8069 13.4621 20.0426 13 20.13Z" fill="#667CBF"/>
</svg>
