<svg id="Layer_1" data-name="Layer 1" xmlns="http://www.w3.org/2000/svg" xmlns:xlink="http://www.w3.org/1999/xlink" viewBox="0 0 1920 381.26"><defs><style>.cls-1{fill:#2d2d2d;}.cls-1,.cls-2{fill-rule:evenodd;}.cls-2{fill:url(#linear-gradient);}.cls-3{fill:url(#linear-gradient-2);}.cls-4{fill:url(#linear-gradient-3);}</style><linearGradient id="linear-gradient" x1="676.73" y1="84.85" x2="757.97" y2="84.85" gradientUnits="userSpaceOnUse"><stop offset="0" stop-color="#6a52a1"/><stop offset="0.15" stop-color="#725ba6"/><stop offset="0.39" stop-color="#8773b3"/><stop offset="0.7" stop-color="#a99bc9"/><stop offset="1" stop-color="#d1c9e2"/></linearGradient><linearGradient id="linear-gradient-2" x1="116.83" y1="384.52" x2="54.56" y2="119.33" gradientTransform="matrix(1, 0, 0, -1, 0, 384)" gradientUnits="userSpaceOnUse"><stop offset="0" stop-color="#6a52a1"/><stop offset="1" stop-color="#5eb4e4"/></linearGradient><linearGradient id="linear-gradient-3" x1="138.13" y1="-1.83" x2="201.81" y2="261.96" xlink:href="#linear-gradient-2"/></defs><path class="cls-1" d="M493.69,64.93c-.86.86-.86,252.27,0,253.13.45.45,5.8.6,20.89.6,11.15,0,20.59-.1,21-.25.56-.2.66-9.54.51-53.64-.1-45.07,0-54.25.6-59.2a56.13,56.13,0,0,1,1.32-7.21,9.91,9.91,0,0,0,.5-2.48,11.07,11.07,0,0,1,1-3.12,12.3,12.3,0,0,0,1-2.63c0-.81,2-4.39,4.19-7.77a38.74,38.74,0,0,1,22-15.54c5.3-1.31,18.57-1.52,20.69-.31a6.87,6.87,0,0,0,2.47.76c1.47,0,8,3.08,10.55,4.9,3,2.22,8.33,7.82,9.54,10,3.43,6.41,5,10.6,6.1,16.65.66,3.38.81,13.22,1,61.67l.15,57.68,1.16.25c.61.15,10.2.2,21.3.15l20.18-.15.16-63.48c.1-55.87,0-63.94-.66-67.12-.45-2-.91-4.44-1.06-5.4-.55-3.63-3.94-13.32-6.21-17.61-4.29-8.28-5.7-10.19-11.86-16.4-5.14-5.2-7-6.66-11.25-9.09a53.33,53.33,0,0,0-12.26-5.39c-1-.31-2.32-.71-3-1-3-1.16-13.17-2.53-18.67-2.53-7.47,0-22.51,2.63-25,4.34a3.43,3.43,0,0,1-1.66.71c-1.22,0-11.76,5.4-12.72,6.51-.15.15-1.77,1.61-3.69,3.23-3.93,3.43-8.88,9.28-10.49,12.51a19.69,19.69,0,0,1-1.82,3,14.93,14.93,0,0,0-1.36,1.72c-.66,1-.71,1-1.36-.26-.61-1-.71-9.28-.71-49.25,0-47.63,0-48-1-48.29-.55-.15-10-.3-20.94-.3C499.39,64.33,494.14,64.48,493.69,64.93Z" transform="translate(0 -0.86)"/><path class="cls-1" d="M1755.37,64.73c-.5.35-.6,26.09-.5,127.07l.15,126.61,21.09.15,21,.1.51-1.31c.3-.76.5-13.07.5-31.69V255.28l1.16-1.51c.61-.86,2.28-2.78,3.64-4.24,8.22-8.83,9-9.44,11-8,.45.36,3.08,3.74,5.85,7.47s5.35,7.17,5.76,7.57,1.66,2.22,2.87,4,3,4.29,4,5.5,2.52,3.18,3.33,4.39,2.77,3.78,4.29,5.8,5.9,7.92,9.69,13.07,7.26,9.79,7.72,10.35c1.31,1.71,7,9.28,8.93,12,1.06,1.46,2.73,3.58,3.68,4.74l1.82,2.17h23.92c13.17,0,24-.2,24.17-.45.25-.41-2.22-4.65-3.48-5.91a20.36,20.36,0,0,1-1.82-2.57,32.19,32.19,0,0,0-1.86-2.68c-.61-.7-5.91-7.82-9.94-13.37-1-1.41-4.29-5.9-7.32-10S1890,276,1890,275.77a14.71,14.71,0,0,0-2-2.58,15,15,0,0,1-2-2.52,36.27,36.27,0,0,0-2.88-4.19c-3-3.88-10.95-14.78-14.38-19.63-4.49-6.31-11.5-15.89-15.79-21.55-3.84-5-7.32-10.44-7.32-11.35a4.54,4.54,0,0,1,1.21-2.17c1.67-1.92,6.81-7.57,12.21-13.47,2.53-2.78,5.6-6.21,6.82-7.57s3.48-3.89,5-5.55,3.53-3.84,4.29-4.8,1.82-2.12,2.27-2.52c1.06-1,6.86-7.37,10.8-11.81,1.67-1.92,3.38-3.83,3.79-4.29s1.66-1.87,2.72-3.08,4.09-4.54,6.61-7.31c9.74-10.65,14.89-16.46,14.89-16.81a2.77,2.77,0,0,0-.61-1.16c-.55-.6-4.09-.66-24-.45l-23.41.25-1.57,1.76c-.91,1-3.33,3.74-5.45,6.06-6.51,7.27-7.77,8.68-12.11,13.68-2.32,2.62-7.72,8.78-12,13.62s-8.48,9.59-9.28,10.55-2.68,3-4.14,4.54c-2.58,2.78-5.91,6.56-9.94,11.35-7.72,9.14-13.93,15.55-14.74,15.24-.45-.15-.65-17.25-.86-72.46-.2-63.48-.35-72.32-1-72.72C1796.25,64.23,1756.33,64.18,1755.37,64.73Z" transform="translate(0 -0.86)"/><path class="cls-1" d="M1456.53,84c-1,1-1,1.66-1,24.17v23.16l-1.26.81c-1,.66-3,.81-12.27.81-10,0-11.1.1-11.85.9s-.86,2.73-.86,16.61.1,15.74.86,16.35c.6.55,3.48.75,12.21.86,9.59.15,11.5.3,12.26.95s.91,3.59.91,49.05c0,55.87.35,63.84,3.28,72.72,3.23,9.94,7.42,15.8,14.78,20.89,5.15,3.54,13.88,7.07,19,7.62a39.72,39.72,0,0,1,5.3,1.06c3.58,1.06,27.8.91,32.6-.2l3.53-.86v-33.3l-10.14-.25c-6.46-.16-10.4-.46-10.85-.81a5.63,5.63,0,0,0-2.22-.91c-3.69-.81-8.63-6.11-10-10.75-.35-1.31-.6-17.36-.7-52.33-.15-45-.1-50.51.6-51.57l.76-1.21h15.29c8.38,0,15.75-.16,16.4-.31l1.11-.3v-16.3c0-9-.15-16.65-.3-17.11-.25-.7-2.12-.8-15.7-.8-15.13,0-16.9-.15-17.91-1.72-.2-.3-.4-10.8-.4-23.26,0-19.73-.1-22.86-.81-23.87l-.76-1.11h-20.44C1458.19,83,1457.49,83.05,1456.53,84Z" transform="translate(0 -0.86)"/><path class="cls-1" d="M1108.1,129.42c-19.84,2.48-35.38,10.05-49.21,23.92a81.15,81.15,0,0,0-19.37,29.42c-7.83,19.79-9,44.92-3.28,67.52,5.45,21.35,19.37,41.13,36.83,52.38,15.75,10.15,34.17,14.44,53.75,12.47,18.37-1.87,34-9.29,47.28-22.51l6.16-6.1v32.14h37.85V132h-37.85v25.53l-5.91-5.85a75.9,75.9,0,0,0-41-21.4C1127.63,129.22,1113.45,128.77,1108.1,129.42Zm26.49,32.86c17.81,3.07,32.09,14.23,40.07,31.28,3.93,8.33,5.6,17,5.6,28.77,0,18.67-5.35,32.9-16.86,44.76a51.6,51.6,0,0,1-25.48,14.53,56.45,56.45,0,0,1-23.47.25C1096,277.48,1082,264.82,1074.94,246c-5.1-13.62-5.4-32.95-.65-47.08a55.23,55.23,0,0,1,28.56-32.55A57.45,57.45,0,0,1,1134.59,162.28Z" transform="translate(0 -0.86)"/><path class="cls-1" d="M370.46,131.49c-3.74.51-8.53,1.42-10.6,2-6.56,1.72-9.28,2.47-10.34,3-.56.3-2.68,1.21-4.7,2.07a59.45,59.45,0,0,0-24.77,19.58c-2.17,2.92-5.61,9.74-5.61,10.95a4.3,4.3,0,0,1-.7,2.07c-.41.55-1,3-1.26,5.55s-.66,5.7-.86,7.16c-.51,3.79,1,14.39,2.62,19a51.78,51.78,0,0,0,5.15,10,79.09,79.09,0,0,0,13.73,12.56c4.49,2.88,12,6.67,14.43,7.27a10,10,0,0,1,2.47,1,4.11,4.11,0,0,0,2,.71,22.7,22.7,0,0,1,4.29,1c4.09,1.21,9.39,2.47,13.62,3.33s14.23,3,19.48,4.29a39.93,39.93,0,0,0,5.25,1,6,6,0,0,1,2.07.5,17.94,17.94,0,0,0,3.84,1.06,13.31,13.31,0,0,1,3.88,1.26,4,4,0,0,0,2,.71c1.26,0,5.75,2.37,8.53,4.49a22.09,22.09,0,0,1,4.08,4.54c1.52,2.27,1.82,3.33,2.12,6.66.61,6.76-.15,9.84-3.48,14.23-1.61,2.17-6,5.55-7.87,6.16a6,6,0,0,0-1.82.81,28.83,28.83,0,0,1-4.79,1.76c-7.57,2.32-25,2.27-32.4-.1-6.46-2.07-12.51-5.9-15.44-9.79-2.42-3.23-5.1-8.58-5.45-11a2.45,2.45,0,0,0-1.51-2.17c-1.72-.66-38.81-.6-40.07,0a2.09,2.09,0,0,0-1,1.77c0,3.58,3.83,15.84,6.11,19.43a19,19,0,0,1,.9,1.76c1.06,2.42,5.45,8.43,9,12.32,3.43,3.73,5.75,5.65,11.4,9.43,7.12,4.8,21.5,10.2,29.57,11.05a52.81,52.81,0,0,1,6.06,1.06c3.88,1,28.41,1,32.3,0a53,53,0,0,1,6.56-1.06,25.38,25.38,0,0,0,5.55-1.06,39.19,39.19,0,0,1,3.78-1.16c6.71-1.56,19.88-8,25.28-12.21,8.28-6.61,14.38-14.08,17.11-21.14,4.44-11.36,5-24.73,1.51-35.18-1.86-5.55-6.35-12.76-9.79-15.69a73.38,73.38,0,0,0-9.38-6.91c-.81-.41-1.87-1-2.27-1.21a38.46,38.46,0,0,0-6.56-2.83,7.51,7.51,0,0,1-1.77-.76c-.71-.5-10.5-3.78-14.38-4.79-4.8-1.26-11.81-2.78-16.15-3.53a47.74,47.74,0,0,1-5.3-1.16,24.77,24.77,0,0,0-4.24-.86,14.77,14.77,0,0,1-4-1,16.16,16.16,0,0,0-4.34-1,43.22,43.22,0,0,1-5.3-1c-1.26-.4-3.64-1.11-5.3-1.61-13.83-3.94-21.75-13.63-19.33-23.52,1.16-4.59,2.32-7,4.49-9.34,1.42-1.51,6.76-5.75,7.27-5.75a8.31,8.31,0,0,0,1.92-.71,52.28,52.28,0,0,1,5.65-1.86c3.48-1,5.25-1.11,12.61-1.11,6.46,0,9.09.2,10.6.8,1.11.41,2.73.91,3.53,1.12,3.74.75,8.89,4,12.57,7.82,3.89,4.08,5.6,7,6.31,10.8a8.7,8.7,0,0,0,1.61,3.63l1.11,1.21h37.19l.61-1.31c.45-1,.45-2,0-4.39-1.11-6-2.07-9.69-2.83-11.2a6.89,6.89,0,0,1-.8-2.28c0-.75-2.43-5.14-5.71-10.44-1.71-2.83-6.1-7.57-10.24-11.31a64.83,64.83,0,0,0-14.08-9c-7-3.28-5.5-2.77-15.69-5.55C399.58,130.43,383.53,129.68,370.46,131.49Z" transform="translate(0 -0.86)"/><path class="cls-1" d="M1333.4,131.49a71.52,71.52,0,0,0-13.37,3.33c-2.88,1.11-6.46,2.68-7.32,3.18-.41.26-2,1.16-3.43,2a25.51,25.51,0,0,0-3.59,2.42c-.5.46-2.17,1.92-3.73,3.28a64.91,64.91,0,0,0-10.14,11.86c-1,1.67-1.62,2.12-2.48,2-1.11-.15-1.11-.2-1.26-12.61s-.1-12.52-1.31-13.28c-1-.65-3.78-.75-19.78-.65l-18.62.15-.15,92.7-.1,92.75h39.37s.49-23.26.49-58.18c0-58.74,0-59.55,2.32-66.72a51.22,51.22,0,0,1,7.42-13.87,38.84,38.84,0,0,1,20.59-13.07c5.3-1.47,16.65-1.52,22.1,0,7.27,2,14.18,6.25,18.07,11.35,2,2.68,5.7,9.89,5.7,11.25a17,17,0,0,0,.86,3.44c.81,2.27.91,7.26,1.16,64l.25,61.57h43.15v-63.9c0-61.56,0-63.83-1-70.24-2-12.82-5.65-21.95-12.31-31-5.61-7.52-9.9-11.2-18-15.39C1365.75,131.34,1348.34,128.92,1333.4,131.49Z" transform="translate(0 -0.86)"/><path class="cls-1" d="M1630.37,130.79c-8.47,1.06-16.8,2.82-19,4a5.71,5.71,0,0,1-2.32.71c-2.07,0-17.36,7.42-19.63,9.59a27.13,27.13,0,0,1-3.48,2.57c-3.74,2.42-10.35,9-14.74,14.84-3.73,4.89-9.23,15-11.76,21.7a26.78,26.78,0,0,1-1.56,3.48,2.93,2.93,0,0,0-.41,1.41,21.35,21.35,0,0,1-1,3.79,31.66,31.66,0,0,0-1.32,5.19,37.8,37.8,0,0,1-1.11,4.9c-.7,2.67-1.76,15.69-1.76,22.86,0,6.61,1,20.34,1.81,24,3.08,14,4,16.85,8.38,25.73,3,6.21,7.17,12.82,9.84,15.85,5.86,6.61,12.31,12.46,17.46,15.85,8.18,5.29,22.51,10.79,30.73,11.7a43.91,43.91,0,0,1,5.25,1.06c3.64,1,27.2,1,31.19-.05a53.1,53.1,0,0,1,6.31-1.06,19.22,19.22,0,0,0,4.69-1,16.06,16.06,0,0,1,3-1c3.38-.65,17.71-7,18.67-8.22a23.15,23.15,0,0,1,2.93-2c8.47-5.15,17.3-14.58,22.75-24.32,2.73-4.85,5.66-11.51,6-13.58a13.49,13.49,0,0,1,1-3.18,6.58,6.58,0,0,0,.7-2.62c0-1-.3-1.31-1.61-1.56-.91-.16-9.79-.26-19.73-.16l-18.07.16-1,1.26a24.14,24.14,0,0,0-1.86,3,33.23,33.23,0,0,1-6.46,8.13c-1.11,1-2.83,2.57-3.79,3.48-2.07,1.87-9.54,5.75-12.11,6.31-1,.2-2.82.71-4.09,1.11-3.63,1.16-22.15.66-27.1-.76a23.62,23.62,0,0,1-4.28-1.51,7.49,7.49,0,0,0-1.87-.86c-2.88-.91-7.57-4.34-12.11-8.83-3.94-3.94-5.2-5.6-6.92-9.08-4-8.23-4.64-10.1-6.25-19.08-1.06-6.16-.91-8.88.6-9.69.56-.3,24.22-.5,64.44-.5,57.53,0,63.59-.1,63.89-.81.66-1.67.3-22.91-.4-26.59a70.86,70.86,0,0,1-1.06-7.42,21.17,21.17,0,0,0-1-5,12.94,12.94,0,0,1-.91-3.53c-.56-3.89-5-14.84-8.58-20.94-4.24-7.27-5.8-9.24-13-16.45A70.16,70.16,0,0,0,1679.47,139a27.22,27.22,0,0,0-4.28-1.76,9.1,9.1,0,0,1-1.92-.71,29.26,29.26,0,0,0-4-1.41c-11-3.28-20-4.7-30.13-4.6C1635.12,130.53,1631.23,130.69,1630.37,130.79Zm20.79,36a24.36,24.36,0,0,1,4.95,1.46,11.27,11.27,0,0,0,2.32,1c1.92.6,10,5.75,11.86,7.52s4.74,5.45,4.74,6a2,2,0,0,0,.81,1.16c1.82,1.57,5.5,11.06,6.51,16.81.56,3.18.51,3.43-.5,4.39s-1.77,1-42.54,1-41.48,0-42.39-1c-.76-.81-.86-1.41-.56-3.38.51-3.43,1.77-8.08,2.32-8.83a21.49,21.49,0,0,0,1.37-3,40.37,40.37,0,0,1,7.26-11c3.48-3.43,8.93-7.42,12-8.78,1.67-.76,3.64-1.67,4.39-2.07a7.17,7.17,0,0,1,3-.76,9.61,9.61,0,0,0,3.18-.76C1632.44,165.35,1645.71,165.51,1651.16,166.82Z" transform="translate(0 -0.86)"/><path class="cls-1" d="M696,132.82l.1,93.39.15,92.2h42.39l.15-91.59c0-50.36-.09-94-.09-94Z" transform="translate(0 -0.86)"/><path class="cls-1" d="M763,133.51c-1,.76-1,1-.5,2.27.3.81,1.16,3.74,1.91,6.51s1.87,7.07,2.58,9.59,1.56,5.8,1.92,7.32,1,3.88,1.46,5.19a15.33,15.33,0,0,1,.81,3.44,5.4,5.4,0,0,0,.5,2,15.9,15.9,0,0,1,1,3.64,25.8,25.8,0,0,0,1,3.68,24.5,24.5,0,0,1,1.26,4c.45,1.66,1.62,5.95,2.57,9.59s2.12,7.82,2.48,9.33,1.06,3.89,1.51,5.2a15.12,15.12,0,0,1,.81,3.68,5.59,5.59,0,0,0,.6,2.38,23.08,23.08,0,0,1,1.21,3.88c1.32,5.4,2.38,9.39,3.59,13.37.7,2.22,1.56,5.3,1.92,6.82.7,3,1.36,5.35,2.77,10.59.91,3.28,1.46,5.4,2.83,10.6.35,1.52,1.11,4.34,1.66,6.31s1.47,5.25,2,7.32,1.46,5.35,2.07,7.31a61.37,61.37,0,0,1,1.56,6.06,27.38,27.38,0,0,0,1.27,4.14,9.1,9.1,0,0,1,.7,2.72,19.67,19.67,0,0,0,1,4.19c1.11,3.53,1.87,6.46,2.78,10.4a109.09,109.09,0,0,0,3.28,11.1l.85,2.27,22.06.15,22,.1.76-1.16a14.67,14.67,0,0,0,1.31-3.89,32.9,32.9,0,0,1,1-3.78c.5-1.11,2-6.46,3.58-12.62.6-2.22,1.46-5.5,2-7.31s1.06-4.14,1.21-5.15a14.35,14.35,0,0,1,1.06-3.28,7,7,0,0,0,.76-2.68,15.57,15.57,0,0,1,.75-3.53c.91-2.77,5.6-19.38,6.51-23.21.41-1.51,1.06-4.39,1.57-6.31a55.06,55.06,0,0,1,1.51-5.3,42.25,42.25,0,0,0,1.16-4.29c.3-1.41.86-3.78,1.31-5.3,1.82-6.81,5.5-19.73,6.41-22.6a29.36,29.36,0,0,0,1-3.79,26.82,26.82,0,0,1,1-3.88c1-3.23,1.36-4.8,2.88-11,.7-2.73,1-3.13,2-3.13s1.37.5,2,2.12a97.94,97.94,0,0,1,3.33,12c.31,1.26.76,2.92,1.06,3.78s.81,2.78,1.16,4.29,1.21,4.8,1.92,7.32,2.32,8.53,3.63,13.37,2.68,9.59,3.08,10.5a8.24,8.24,0,0,1,.71,2.72,18.78,18.78,0,0,0,1,4.14c.5,1.72,1.21,4.09,1.51,5.35,1.31,4.94,4.44,16.4,5.45,19.93.41,1.36,1.21,4.24,1.77,6.31s1.31,4.9,1.66,6.31,1,3.53,1.32,4.79,1,3.74,1.46,5.55,1.41,5.05,2,7.17c2.77,10.24,3.23,11.91,4,14l.86,2.27,22.26.15c17.41.1,22.35-.05,22.75-.5a63.34,63.34,0,0,0,2.33-7.47c1-3.74,2.32-8.53,2.87-10.6s1.26-4.79,1.57-6.06a21.42,21.42,0,0,1,1.21-3.88,8.58,8.58,0,0,0,.7-3,16.45,16.45,0,0,1,.81-3.43,38.32,38.32,0,0,0,1.16-4c.25-1.11,1.42-5.45,2.58-9.59,3.33-11.7,4-14.43,4.79-17.41.71-2.77,1.16-4.44,2.78-10.59,1.41-5.3,2-7.62,3-11.11.51-1.81,1.72-6.35,2.78-10.09s2.27-8.43,2.82-10.34,1.27-4.9,1.62-6.56a21.62,21.62,0,0,1,1-3.64,25.85,25.85,0,0,0,1.11-3.73c.4-1.77,1.16-4.84,1.71-6.76s1.42-5.25,2-7.32c2-7.12,3.69-13.37,4.39-15.9.46-1.41,1-3.43,1.26-4.54.86-3.73,1.62-6.56,2.58-9.59.5-1.71,1.16-4.08,1.41-5.29s1.16-4.65,1.92-7.52c1.36-5.1,1.36-5.25.4-5.91-.75-.55-4.54-.7-20-.7-20.34,0-21.65.15-21.65,2.32a43.2,43.2,0,0,1-1,5.35c-.55,2.32-1.51,6.46-2.12,9.23s-1.76,7.87-2.52,11.36-1.92,8.22-2.47,10.59-1.21,5.71-1.47,7.42a19,19,0,0,1-1,4,16.73,16.73,0,0,0-.8,4.19,18.69,18.69,0,0,1-.81,4.08,21.55,21.55,0,0,0-1,4.29c-.3,1.92-.86,4.6-1.26,6s-1.57,6.36-2.57,11.1-2.28,10.24-2.78,12.31a28.7,28.7,0,0,0-1,5.2,8.89,8.89,0,0,1-.71,3.08,29.32,29.32,0,0,0-1.06,4.64,16.53,16.53,0,0,1-.8,3.84,23.62,23.62,0,0,0-1,4.54,47,47,0,0,1-1.26,6,28.57,28.57,0,0,0-1,4.55c-.2,1.26-1.16,5.55-2.17,9.58-1.77,6.92-1.92,7.32-3.08,7.32s-1.31-.4-2.37-4.54c-.66-2.52-1.42-5.7-1.67-7.07s-.86-3.68-1.26-5c-.91-3.08-2.32-8.43-2.83-10.85-.2-1-1.26-4.95-2.27-8.83s-2.27-8.78-2.77-10.85c-1.11-4.9-1.92-8.08-3-12.11-.5-1.82-1.06-4.29-1.26-5.55a12.77,12.77,0,0,0-.81-3.08,22.15,22.15,0,0,1-1.11-4c-.4-1.77-2-8.12-3.58-14.08s-3.18-12.31-3.58-14.13c-.86-4-2.07-8.93-3-12.36-.41-1.41-1.36-5.25-2.22-8.58s-1.92-7.52-2.37-9.34-1.11-4.59-1.52-6.2a8.27,8.27,0,0,0-1.56-3.69c-.76-.55-4.54-.65-20.09-.7-20.69,0-21,0-21.6,2.62-.15.66-1.21,4.79-2.37,9.24s-2.37,9.18-2.62,10.59a32,32,0,0,1-1.16,4.09,21.09,21.09,0,0,0-1.06,4,22.92,22.92,0,0,1-1,4.08,8.73,8.73,0,0,0-.71,2.78,23,23,0,0,1-1,4.44c-1,3.38-5.14,19.68-6.3,24.88-.41,1.61-.86,3.33-1.06,3.78s-.61,2.33-1,4.14c-.61,3.08-1.26,5.6-3,11.86-.66,2.37-4.19,16.45-6.36,25.23-1.06,4.34-1.82,7.52-3.18,13.12-.5,1.92-1.31,5-1.82,6.82s-1.05,4.13-1.21,5.14a7.37,7.37,0,0,1-1.46,3.28l-1.16,1.37-.91-1.72a23.24,23.24,0,0,1-1.56-5.05c-1.16-6.2-2.68-12.87-3.18-14.28a9.47,9.47,0,0,1-.56-2.77,22.28,22.28,0,0,0-.75-4.14c-.46-1.52-1.11-4.59-1.52-6.81s-1.21-6-1.76-8.33-1.72-7.52-2.53-11.51-1.76-7.72-2-8.32a22.05,22.05,0,0,1-.8-3.89,28.89,28.89,0,0,0-1-4.59,28.34,28.34,0,0,1-1-4.79,22.22,22.22,0,0,0-1-4.55,21.43,21.43,0,0,1-1-4.29,42.26,42.26,0,0,0-1-5.24c-.4-1.42-.91-3.79-1.16-5.3s-1.36-6.41-2.37-10.85c-2.58-11.15-3.08-13.48-4-18.42-.45-2.37-1.16-5.3-1.51-6.56a28.46,28.46,0,0,1-1-4.54c-.56-3.84-.71-4.44-1.62-4.85-.5-.25-9.84-.55-20.74-.7C766.09,132.75,764,132.81,763,133.51Z" transform="translate(0 -0.86)"/><path class="cls-2" d="M714.1,109.63a38.94,38.94,0,0,1,3.25,15.84,40.06,40.06,0,0,1,3.15-15.84,41.74,41.74,0,0,1,8.73-12.9,40.35,40.35,0,0,1,12.9-8.63A38.94,38.94,0,0,1,758,84.85a40.06,40.06,0,0,1-15.84-3.15A41.14,41.14,0,0,1,720.5,60.07a40.06,40.06,0,0,1-3.15-15.84,38.94,38.94,0,0,1-3.25,15.84A40.35,40.35,0,0,1,705.47,73a41.74,41.74,0,0,1-12.9,8.73,40.06,40.06,0,0,1-15.84,3.15,38.94,38.94,0,0,1,15.84,3.25,39.89,39.89,0,0,1,21.53,21.53Z" transform="translate(0 -0.86)"/><path class="cls-3" d="M42.21,159.09l88.26,64.82L66.9,270.57,21.35,237.14C7.77,227.16,0,210,0,190.08v-62c0-19.94,7.79-37.06,21.35-47L130.58.86l63.57,46.68Z" transform="translate(0 -0.86)"/><path class="cls-4" d="M256.06,192.9v62c0,19.94-7.78,37.06-21.35,47L125.47,382.13,61.89,335.45l152-111.56-88.27-64.81,63.57-46.68,45.55,33.43C248.28,155.83,256.06,173,256.06,192.9Z" transform="translate(0 -0.86)"/></svg>