<svg width="80" height="80" viewBox="0 0 80 80" fill="none" xmlns="http://www.w3.org/2000/svg">
<path d="M8.33301 27.29C8.67967 20.29 9.71634 15.9266 12.823 12.8233C15.923 9.71665 20.2897 8.67998 27.2897 8.33331M71.6663 27.29C71.3197 20.29 70.283 15.9266 67.1763 12.8233C64.0763 9.71665 59.7097 8.67998 52.7097 8.33331M52.7097 71.6666C59.7097 71.32 64.0763 70.2833 67.1763 67.18C70.283 64.0733 71.3197 59.71 71.6663 52.7133M27.2897 71.6666C20.2897 71.32 15.923 70.2833 12.823 67.18C9.71634 64.0733 8.67967 59.71 8.33301 52.7133" stroke="#667CBF" stroke-width="5" stroke-linecap="round" stroke-linejoin="round"/>
<path d="M31.6672 35.1833C31.6672 32.3766 31.2272 28.0433 32.9205 25.5166C36.6638 19.9399 44.6005 20.6833 47.4005 26.1266C48.7738 28.7999 48.2572 32.5366 48.3205 35.1833M31.6672 35.1833C27.3438 35.1833 26.4605 37.6566 25.8005 39.5999C25.1905 41.7833 24.5672 46.9999 25.5205 52.7133C26.2338 56.3533 29.0172 57.9566 31.4105 58.1599C33.7005 58.3533 43.3672 58.2799 46.1638 58.2799C50.5005 58.2799 53.2072 57.3266 54.4805 52.9566C55.0905 49.5566 55.2572 43.4833 54.2405 39.5999C52.8938 35.7166 50.1738 35.1833 48.3205 35.1833M31.6672 35.1833C36.2472 34.9999 45.7005 35.0366 48.3205 35.1833" stroke="#667CBF" stroke-width="5" stroke-linecap="round"/>
</svg>
